<svg width="300" height="300" viewBox="0 0 300 300" fill="none" xmlns="http://www.w3.org/2000/svg">
<path d="M42.6878 245.769C45.8723 245.77 49.0257 245.132 51.9678 243.89C54.9099 242.649 57.5828 240.829 59.8337 238.534C62.0846 236.239 63.8694 233.514 65.0858 230.516C66.3023 227.517 66.9266 224.304 66.9231 221.06V29.302C66.9231 26.0601 66.2963 22.85 65.0786 19.8548C63.8609 16.8597 62.0761 14.1383 59.826 11.8459C57.576 9.55356 54.9048 7.73516 51.965 6.49454C49.0252 5.25392 45.8743 4.61538 42.6923 4.61538C39.5103 4.61538 36.3594 5.25392 33.4196 6.49454C30.4798 7.73516 27.8086 9.55356 25.5586 11.8459C23.3085 14.1383 21.5237 16.8597 20.306 19.8548C19.0883 22.85 18.4616 26.0601 18.4616 29.302V221.06C18.458 224.303 19.082 227.516 20.2979 230.514C21.5138 233.511 23.2977 236.235 25.5477 238.53C27.7977 240.825 30.4696 242.646 33.4106 243.888C36.3516 245.13 39.5041 245.769 42.6878 245.769Z" fill="black"/>
<path d="M123.846 298.846C127.079 298.846 130.28 298.206 133.267 296.962C136.253 295.717 138.966 293.894 141.252 291.595C143.537 289.296 145.349 286.567 146.584 283.564C147.82 280.56 148.454 277.342 148.452 274.092V221.967C160.116 235.978 176.31 248.034 202.532 248.034C243.661 248.034 281.538 216.109 281.538 157.805V157.153C281.538 98.8482 243.013 66.9231 202.532 66.9231C176.958 66.9231 160.435 78.9696 148.461 95.2581V92.9902C148.461 86.4274 145.868 80.1335 141.252 75.4929C136.635 70.8523 130.374 68.2453 123.846 68.2453C117.318 68.2453 111.057 70.8523 106.44 75.4929C101.824 80.1335 99.2308 86.4274 99.2308 92.9902V274.101C99.2296 277.352 99.8657 280.571 101.103 283.574C102.34 286.578 104.154 289.306 106.441 291.604C108.728 293.903 111.443 295.725 114.431 296.968C117.419 298.21 120.612 298.849 123.846 298.846ZM189.901 206.018C166.911 206.018 147.813 186.791 147.813 157.805V157.153C147.813 128.157 166.911 108.948 189.901 108.948C212.899 108.948 232.326 128.157 232.326 157.153V157.795C232.326 187.113 212.899 206.018 189.901 206.018Z" fill="black"/>
</svg>
