<?xml version="1.0" standalone="no"?>
<!DOCTYPE svg PUBLIC "-//W3C//DTD SVG 20010904//EN"
 "http://www.w3.org/TR/2001/REC-SVG-20010904/DTD/svg10.dtd">
<svg version="1.0" xmlns="http://www.w3.org/2000/svg"
 width="700.000000pt" height="700.000000pt" viewBox="0 0 700.000000 700.000000"
 preserveAspectRatio="xMidYMid meet">
<metadata>
Created by potrace 1.14, written by Peter Selinger 2001-2017
</metadata>
<g transform="translate(0.000000,700.000000) scale(0.100000,-0.100000)"
fill="#000000" stroke="none">
<path d="M840 6868 c-151 -48 -278 -155 -344 -288 -20 -41 -39 -86 -42 -100
-2 -14 -9 -47 -14 -74 -14 -67 -13 -4604 0 -4666 23 -106 70 -206 130 -276
181 -210 495 -259 722 -111 99 65 163 137 211 237 62 130 58 -47 59 2470 0
1713 -3 2311 -12 2359 -51 282 -286 477 -565 469 -51 -1 -114 -10 -145 -20z"/>
<path d="M4505 5424 c-338 -47 -596 -175 -836 -414 -64 -63 -129 -133 -145
-155 -30 -42 -50 -65 -56 -65 -2 0 -4 26 -5 58 -13 323 -279 570 -601 557
-261 -10 -488 -209 -535 -470 -18 -96 -16 -4371 2 -4454 40 -189 185 -352 377
-423 73 -27 242 -35 321 -14 228 60 400 253 430 481 4 27 7 330 7 672 l1 623
30 -35 c70 -78 95 -103 170 -173 217 -200 488 -331 779 -377 197 -32 474 -25
656 17 25 5 55 12 67 14 67 13 253 83 355 134 353 177 614 440 801 807 93 183
168 410 202 613 9 52 18 106 20 120 20 115 27 518 12 660 -37 342 -110 600
-245 860 -183 352 -465 631 -802 794 -188 91 -330 136 -507 162 -26 3 -57 9
-68 11 -49 11 -348 9 -430 -3z m150 -994 c378 -93 651 -401 742 -835 18 -85
24 -357 11 -470 -21 -178 -98 -379 -200 -525 -40 -57 -185 -210 -199 -210 -4
0 -14 -6 -21 -13 -27 -26 -115 -77 -185 -106 -424 -181 -904 -34 -1157 354
-48 74 -68 111 -110 206 -16 37 -59 195 -71 259 -14 74 -14 365 -1 450 58 365
228 630 511 797 61 36 196 89 250 98 89 15 100 17 103 20 2 1 56 1 120 0 79
-2 146 -10 207 -25z"/>
</g>
</svg>
